# xmcd CD database file
#
# Track frame offsets:
#	183
#	15005
#	29030
#	48653
#	56803
#	68965
#	87685
#	96398
#	113840
#	126590
#	134158
#	150105
#	161335
#	166878
#	174290
#	183328
#	191135
#	195920
#	207425
#	228818
#
# Disc length: 3156 seconds
#
# Revision: 7
# Processed by: cddbd v1.5.2PL0 Copyright (c) Steve Scherf et al.
# Submitted via: CDex 1.51
#
DISCID=150c5214
DTITLE=Charles-Valentin Alkan - Oeuvres pour piano  { Hüseyin Sermet }
DYEAR=1991
DGENRE=Piano
TTITLE0=Prélude, Op.31  N° 01 - Lentement
TTITLE1=Prélude, Op.31  N° 02 - Assez lentement
TTITLE2=Prélude, Op.31  N° 03 - Dans le genre ancien Psaume 150e
TTITLE3=Prélude, Op.31  N° 04 - Prière du soir
TTITLE4=Prélude, Op.31  N° 05 - Psaume 15
TTITLE5=Prélude, Op.31  N° 06 - Ancienne Mélodie de la Synagogue
TTITLE6=Prélude, Op.31  N° 07 - Librement mais sans secousses
TTITLE7=Prélude, Op.31  N° 08 - Chanson de la folle au bord de la mer
TTITLE8=Prélude, Op.31  N° 09 - Placiditas
TTITLE9=Prélude, Op.31  N° 12 - Le temps qui n'est plus
TTITLE10=Prélude, Op.31  N° 13 - J'étais endormie mais mon coeur veillait
TTITLE11=Prélude, Op.31  N° 16 - Assez lentement
TTITLE12=Esquisse, Op.63 - Le Staccatissimo
TTITLE13=Esquisse, Op.63 - Increpatio
TTITLE14=Esquisse, Op.63 - Les Soupirs
TTITLE15=Esquisse, Op.63 - Morituri te salutant
TTITLE16=Esquisse, Op.63 - Le premier billet doux
TTITLE17=Esquisse, Op.63 - Scherzetto
TTITLE18=Barcarolle, Op.65
TTITLE19=Toccatina, Op.75
EXTD=YEAR: 1991
EXTT0=
EXTT1=
EXTT2=
EXTT3=
EXTT4=
EXTT5=
EXTT6=
EXTT7=
EXTT8=
EXTT9=
EXTT10=
EXTT11=
EXTT12=
EXTT13=
EXTT14=
EXTT15=
EXTT16=
EXTT17=
EXTT18=
EXTT19=
PLAYORDER=
